<mxfile host="app.diagrams.net" modified="2023-10-04T08:49:25.021Z" agent="Mozilla/5.0 (Windows NT 10.0; Win64; x64; rv:109.0) Gecko/20100101 Firefox/118.0" etag="5e_L36ZBUjC8va2F-2Gt" version="22.0.0" type="github">
  <diagram name="Page-1" id="5xcIQ1hF4PuccZflKzSc">
    <mxGraphModel dx="794" dy="414" grid="1" gridSize="10" guides="1" tooltips="1" connect="1" arrows="1" fold="1" page="1" pageScale="1" pageWidth="850" pageHeight="1100" math="0" shadow="0">
      <root>
        <mxCell id="0" />
        <mxCell id="1" parent="0" />
        <mxCell id="XKSnobTcjBm1ILdcvmeS-1" value="Node 1" style="swimlane;startSize=20;horizontal=1;containerType=tree;" parent="1" vertex="1">
          <mxGeometry x="290" y="20" width="540" height="320" as="geometry" />
        </mxCell>
        <mxCell id="XKSnobTcjBm1ILdcvmeS-3" value="&lt;font style=&quot;font-size: 15px;&quot;&gt;DDR Memory&lt;/font&gt;" style="whiteSpace=wrap;html=1;treeFolding=1;treeMoving=1;newEdgeStyle={&quot;edgeStyle&quot;:&quot;elbowEdgeStyle&quot;,&quot;startArrow&quot;:&quot;none&quot;,&quot;endArrow&quot;:&quot;none&quot;};" parent="XKSnobTcjBm1ILdcvmeS-1" vertex="1">
          <mxGeometry x="210" y="30" width="120" height="280" as="geometry" />
        </mxCell>
        <mxCell id="XKSnobTcjBm1ILdcvmeS-4" value="&lt;font style=&quot;font-size: 15px;&quot;&gt;Communication Controller&lt;/font&gt;" style="whiteSpace=wrap;html=1;treeFolding=1;treeMoving=1;newEdgeStyle={&quot;edgeStyle&quot;:&quot;elbowEdgeStyle&quot;,&quot;startArrow&quot;:&quot;none&quot;,&quot;endArrow&quot;:&quot;none&quot;};" parent="XKSnobTcjBm1ILdcvmeS-1" vertex="1">
          <mxGeometry x="10" y="30" width="120" height="280" as="geometry" />
        </mxCell>
        <mxCell id="XKSnobTcjBm1ILdcvmeS-6" value="FPGA" style="swimlane;whiteSpace=wrap;html=1;" parent="XKSnobTcjBm1ILdcvmeS-1" vertex="1">
          <mxGeometry x="410" y="30" width="120" height="280" as="geometry" />
        </mxCell>
        <mxCell id="XKSnobTcjBm1ILdcvmeS-19" value="Core Controller" style="swimlane;whiteSpace=wrap;html=1;" parent="XKSnobTcjBm1ILdcvmeS-6" vertex="1">
          <mxGeometry x="10" y="30" width="100" height="240" as="geometry" />
        </mxCell>
        <mxCell id="XKSnobTcjBm1ILdcvmeS-21" value="Hash Core 1" style="rounded=0;whiteSpace=wrap;html=1;" parent="XKSnobTcjBm1ILdcvmeS-19" vertex="1">
          <mxGeometry x="10" y="40" width="40" height="30" as="geometry" />
        </mxCell>
        <mxCell id="XKSnobTcjBm1ILdcvmeS-23" value="Hash Core 2" style="rounded=0;whiteSpace=wrap;html=1;" parent="XKSnobTcjBm1ILdcvmeS-19" vertex="1">
          <mxGeometry x="50" y="40" width="40" height="30" as="geometry" />
        </mxCell>
        <mxCell id="XKSnobTcjBm1ILdcvmeS-25" value="Hash Core .." style="rounded=0;whiteSpace=wrap;html=1;" parent="XKSnobTcjBm1ILdcvmeS-19" vertex="1">
          <mxGeometry x="10" y="70" width="40" height="30" as="geometry" />
        </mxCell>
        <mxCell id="XKSnobTcjBm1ILdcvmeS-26" value="Hash Core .." style="rounded=0;whiteSpace=wrap;html=1;" parent="XKSnobTcjBm1ILdcvmeS-19" vertex="1">
          <mxGeometry x="50" y="70" width="40" height="30" as="geometry" />
        </mxCell>
        <mxCell id="XKSnobTcjBm1ILdcvmeS-27" value="Hash Core .." style="rounded=0;whiteSpace=wrap;html=1;" parent="XKSnobTcjBm1ILdcvmeS-19" vertex="1">
          <mxGeometry x="10" y="100" width="40" height="30" as="geometry" />
        </mxCell>
        <mxCell id="XKSnobTcjBm1ILdcvmeS-28" value="Hash Core .." style="rounded=0;whiteSpace=wrap;html=1;" parent="XKSnobTcjBm1ILdcvmeS-19" vertex="1">
          <mxGeometry x="50" y="100" width="40" height="30" as="geometry" />
        </mxCell>
        <mxCell id="XKSnobTcjBm1ILdcvmeS-29" value="Hash Core .." style="rounded=0;whiteSpace=wrap;html=1;" parent="XKSnobTcjBm1ILdcvmeS-19" vertex="1">
          <mxGeometry x="10" y="130" width="40" height="30" as="geometry" />
        </mxCell>
        <mxCell id="XKSnobTcjBm1ILdcvmeS-30" value="Hash Core .." style="rounded=0;whiteSpace=wrap;html=1;" parent="XKSnobTcjBm1ILdcvmeS-19" vertex="1">
          <mxGeometry x="50" y="130" width="40" height="30" as="geometry" />
        </mxCell>
        <mxCell id="XKSnobTcjBm1ILdcvmeS-31" value="Hash Core .." style="rounded=0;whiteSpace=wrap;html=1;" parent="XKSnobTcjBm1ILdcvmeS-19" vertex="1">
          <mxGeometry x="10" y="160" width="40" height="30" as="geometry" />
        </mxCell>
        <mxCell id="XKSnobTcjBm1ILdcvmeS-32" value="Hash Core .." style="rounded=0;whiteSpace=wrap;html=1;" parent="XKSnobTcjBm1ILdcvmeS-19" vertex="1">
          <mxGeometry x="50" y="160" width="40" height="30" as="geometry" />
        </mxCell>
        <mxCell id="XKSnobTcjBm1ILdcvmeS-33" value="Hash Core .." style="rounded=0;whiteSpace=wrap;html=1;" parent="XKSnobTcjBm1ILdcvmeS-19" vertex="1">
          <mxGeometry x="10" y="190" width="40" height="30" as="geometry" />
        </mxCell>
        <mxCell id="XKSnobTcjBm1ILdcvmeS-34" value="Hash Core n" style="rounded=0;whiteSpace=wrap;html=1;" parent="XKSnobTcjBm1ILdcvmeS-19" vertex="1">
          <mxGeometry x="50" y="190" width="40" height="30" as="geometry" />
        </mxCell>
        <mxCell id="XKSnobTcjBm1ILdcvmeS-40" value="" style="endArrow=classic;html=1;rounded=0;exitX=1;exitY=0.25;exitDx=0;exitDy=0;" parent="XKSnobTcjBm1ILdcvmeS-1" source="XKSnobTcjBm1ILdcvmeS-3" edge="1">
          <mxGeometry width="50" height="50" relative="1" as="geometry">
            <mxPoint x="360" y="130" as="sourcePoint" />
            <mxPoint x="420" y="100" as="targetPoint" />
          </mxGeometry>
        </mxCell>
        <mxCell id="XKSnobTcjBm1ILdcvmeS-41" value="" style="endArrow=classic;html=1;rounded=0;entryX=1;entryY=0.321;entryDx=0;entryDy=0;exitX=0;exitY=0.25;exitDx=0;exitDy=0;entryPerimeter=0;" parent="XKSnobTcjBm1ILdcvmeS-1" edge="1">
          <mxGeometry width="50" height="50" relative="1" as="geometry">
            <mxPoint x="420" y="169.7" as="sourcePoint" />
            <mxPoint x="330" y="169.57999999999998" as="targetPoint" />
          </mxGeometry>
        </mxCell>
        <mxCell id="XKSnobTcjBm1ILdcvmeS-42" value="Salts, Hashes. Passwords" style="text;html=1;strokeColor=none;fillColor=none;align=center;verticalAlign=middle;whiteSpace=wrap;rounded=0;" parent="XKSnobTcjBm1ILdcvmeS-1" vertex="1">
          <mxGeometry x="340" y="60" width="60" height="30" as="geometry" />
        </mxCell>
        <mxCell id="XKSnobTcjBm1ILdcvmeS-43" value="Successful Passwords" style="text;html=1;strokeColor=none;fillColor=none;align=center;verticalAlign=middle;whiteSpace=wrap;rounded=0;" parent="XKSnobTcjBm1ILdcvmeS-1" vertex="1">
          <mxGeometry x="340" y="130" width="60" height="30" as="geometry" />
        </mxCell>
        <mxCell id="XKSnobTcjBm1ILdcvmeS-44" value="" style="endArrow=classic;html=1;rounded=0;exitX=1;exitY=0.25;exitDx=0;exitDy=0;entryX=0;entryY=0.25;entryDx=0;entryDy=0;" parent="XKSnobTcjBm1ILdcvmeS-1" edge="1">
          <mxGeometry width="50" height="50" relative="1" as="geometry">
            <mxPoint x="130" y="80" as="sourcePoint" />
            <mxPoint x="210" y="80" as="targetPoint" />
          </mxGeometry>
        </mxCell>
        <mxCell id="XKSnobTcjBm1ILdcvmeS-45" value="" style="endArrow=classic;html=1;rounded=0;exitX=0;exitY=0.5;exitDx=0;exitDy=0;entryX=1;entryY=0.5;entryDx=0;entryDy=0;" parent="XKSnobTcjBm1ILdcvmeS-1" edge="1">
          <mxGeometry width="50" height="50" relative="1" as="geometry">
            <mxPoint x="210" y="210" as="sourcePoint" />
            <mxPoint x="130" y="210" as="targetPoint" />
          </mxGeometry>
        </mxCell>
        <mxCell id="XKSnobTcjBm1ILdcvmeS-46" value="&lt;div&gt;(1) Salts, &lt;br&gt;&lt;/div&gt;&lt;div&gt;Hashes.&lt;br&gt;&lt;/div&gt;" style="text;html=1;strokeColor=none;fillColor=none;align=center;verticalAlign=middle;whiteSpace=wrap;rounded=0;" parent="XKSnobTcjBm1ILdcvmeS-1" vertex="1">
          <mxGeometry x="140" y="40" width="60" height="30" as="geometry" />
        </mxCell>
        <mxCell id="XKSnobTcjBm1ILdcvmeS-47" value="Successful Passwords" style="text;html=1;strokeColor=none;fillColor=none;align=center;verticalAlign=middle;whiteSpace=wrap;rounded=0;" parent="XKSnobTcjBm1ILdcvmeS-1" vertex="1">
          <mxGeometry x="140" y="170" width="60" height="30" as="geometry" />
        </mxCell>
        <mxCell id="XKSnobTcjBm1ILdcvmeS-48" value="" style="endArrow=classic;html=1;rounded=0;exitX=1;exitY=0.25;exitDx=0;exitDy=0;entryX=0;entryY=0.25;entryDx=0;entryDy=0;" parent="XKSnobTcjBm1ILdcvmeS-1" edge="1">
          <mxGeometry width="50" height="50" relative="1" as="geometry">
            <mxPoint x="130" y="130" as="sourcePoint" />
            <mxPoint x="210" y="130" as="targetPoint" />
          </mxGeometry>
        </mxCell>
        <mxCell id="XKSnobTcjBm1ILdcvmeS-49" value="(2) Passwords " style="text;html=1;strokeColor=none;fillColor=none;align=center;verticalAlign=middle;whiteSpace=wrap;rounded=0;" parent="XKSnobTcjBm1ILdcvmeS-1" vertex="1">
          <mxGeometry x="140" y="90" width="60" height="30" as="geometry" />
        </mxCell>
        <mxCell id="XKSnobTcjBm1ILdcvmeS-50" value="Node .." style="swimlane;startSize=20;horizontal=1;containerType=tree;" parent="1" vertex="1">
          <mxGeometry x="290" y="370" width="540" height="320" as="geometry" />
        </mxCell>
        <mxCell id="XKSnobTcjBm1ILdcvmeS-51" value="&lt;font style=&quot;font-size: 15px;&quot;&gt;DDR Memory&lt;/font&gt;" style="whiteSpace=wrap;html=1;treeFolding=1;treeMoving=1;newEdgeStyle={&quot;edgeStyle&quot;:&quot;elbowEdgeStyle&quot;,&quot;startArrow&quot;:&quot;none&quot;,&quot;endArrow&quot;:&quot;none&quot;};" parent="XKSnobTcjBm1ILdcvmeS-50" vertex="1">
          <mxGeometry x="210" y="30" width="120" height="280" as="geometry" />
        </mxCell>
        <mxCell id="XKSnobTcjBm1ILdcvmeS-52" value="&lt;font style=&quot;font-size: 15px;&quot;&gt;Communication Controller&lt;/font&gt;" style="whiteSpace=wrap;html=1;treeFolding=1;treeMoving=1;newEdgeStyle={&quot;edgeStyle&quot;:&quot;elbowEdgeStyle&quot;,&quot;startArrow&quot;:&quot;none&quot;,&quot;endArrow&quot;:&quot;none&quot;};" parent="XKSnobTcjBm1ILdcvmeS-50" vertex="1">
          <mxGeometry x="10" y="30" width="120" height="280" as="geometry" />
        </mxCell>
        <mxCell id="XKSnobTcjBm1ILdcvmeS-53" value="FPGA" style="swimlane;whiteSpace=wrap;html=1;" parent="XKSnobTcjBm1ILdcvmeS-50" vertex="1">
          <mxGeometry x="410" y="30" width="120" height="280" as="geometry" />
        </mxCell>
        <mxCell id="XKSnobTcjBm1ILdcvmeS-54" value="Core Controller" style="swimlane;whiteSpace=wrap;html=1;" parent="XKSnobTcjBm1ILdcvmeS-53" vertex="1">
          <mxGeometry x="10" y="30" width="100" height="240" as="geometry" />
        </mxCell>
        <mxCell id="XKSnobTcjBm1ILdcvmeS-55" value="Hash Core 1" style="rounded=0;whiteSpace=wrap;html=1;" parent="XKSnobTcjBm1ILdcvmeS-54" vertex="1">
          <mxGeometry x="10" y="40" width="40" height="30" as="geometry" />
        </mxCell>
        <mxCell id="XKSnobTcjBm1ILdcvmeS-56" value="Hash Core 2" style="rounded=0;whiteSpace=wrap;html=1;" parent="XKSnobTcjBm1ILdcvmeS-54" vertex="1">
          <mxGeometry x="50" y="40" width="40" height="30" as="geometry" />
        </mxCell>
        <mxCell id="XKSnobTcjBm1ILdcvmeS-57" value="Hash Core .." style="rounded=0;whiteSpace=wrap;html=1;" parent="XKSnobTcjBm1ILdcvmeS-54" vertex="1">
          <mxGeometry x="10" y="70" width="40" height="30" as="geometry" />
        </mxCell>
        <mxCell id="XKSnobTcjBm1ILdcvmeS-58" value="Hash Core .." style="rounded=0;whiteSpace=wrap;html=1;" parent="XKSnobTcjBm1ILdcvmeS-54" vertex="1">
          <mxGeometry x="50" y="70" width="40" height="30" as="geometry" />
        </mxCell>
        <mxCell id="XKSnobTcjBm1ILdcvmeS-59" value="Hash Core .." style="rounded=0;whiteSpace=wrap;html=1;" parent="XKSnobTcjBm1ILdcvmeS-54" vertex="1">
          <mxGeometry x="10" y="100" width="40" height="30" as="geometry" />
        </mxCell>
        <mxCell id="XKSnobTcjBm1ILdcvmeS-60" value="Hash Core .." style="rounded=0;whiteSpace=wrap;html=1;" parent="XKSnobTcjBm1ILdcvmeS-54" vertex="1">
          <mxGeometry x="50" y="100" width="40" height="30" as="geometry" />
        </mxCell>
        <mxCell id="XKSnobTcjBm1ILdcvmeS-61" value="Hash Core .." style="rounded=0;whiteSpace=wrap;html=1;" parent="XKSnobTcjBm1ILdcvmeS-54" vertex="1">
          <mxGeometry x="10" y="130" width="40" height="30" as="geometry" />
        </mxCell>
        <mxCell id="XKSnobTcjBm1ILdcvmeS-62" value="Hash Core .." style="rounded=0;whiteSpace=wrap;html=1;" parent="XKSnobTcjBm1ILdcvmeS-54" vertex="1">
          <mxGeometry x="50" y="130" width="40" height="30" as="geometry" />
        </mxCell>
        <mxCell id="XKSnobTcjBm1ILdcvmeS-63" value="Hash Core .." style="rounded=0;whiteSpace=wrap;html=1;" parent="XKSnobTcjBm1ILdcvmeS-54" vertex="1">
          <mxGeometry x="10" y="160" width="40" height="30" as="geometry" />
        </mxCell>
        <mxCell id="XKSnobTcjBm1ILdcvmeS-64" value="Hash Core .." style="rounded=0;whiteSpace=wrap;html=1;" parent="XKSnobTcjBm1ILdcvmeS-54" vertex="1">
          <mxGeometry x="50" y="160" width="40" height="30" as="geometry" />
        </mxCell>
        <mxCell id="XKSnobTcjBm1ILdcvmeS-65" value="Hash Core .." style="rounded=0;whiteSpace=wrap;html=1;" parent="XKSnobTcjBm1ILdcvmeS-54" vertex="1">
          <mxGeometry x="10" y="190" width="40" height="30" as="geometry" />
        </mxCell>
        <mxCell id="XKSnobTcjBm1ILdcvmeS-66" value="Hash Core n" style="rounded=0;whiteSpace=wrap;html=1;" parent="XKSnobTcjBm1ILdcvmeS-54" vertex="1">
          <mxGeometry x="50" y="190" width="40" height="30" as="geometry" />
        </mxCell>
        <mxCell id="XKSnobTcjBm1ILdcvmeS-67" value="" style="endArrow=classic;html=1;rounded=0;exitX=1;exitY=0.25;exitDx=0;exitDy=0;" parent="XKSnobTcjBm1ILdcvmeS-50" source="XKSnobTcjBm1ILdcvmeS-51" edge="1">
          <mxGeometry width="50" height="50" relative="1" as="geometry">
            <mxPoint x="360" y="130" as="sourcePoint" />
            <mxPoint x="420" y="100" as="targetPoint" />
          </mxGeometry>
        </mxCell>
        <mxCell id="XKSnobTcjBm1ILdcvmeS-68" value="" style="endArrow=classic;html=1;rounded=0;entryX=1;entryY=0.321;entryDx=0;entryDy=0;exitX=0;exitY=0.25;exitDx=0;exitDy=0;entryPerimeter=0;" parent="XKSnobTcjBm1ILdcvmeS-50" edge="1">
          <mxGeometry width="50" height="50" relative="1" as="geometry">
            <mxPoint x="420" y="169.7" as="sourcePoint" />
            <mxPoint x="330" y="169.57999999999998" as="targetPoint" />
          </mxGeometry>
        </mxCell>
        <mxCell id="XKSnobTcjBm1ILdcvmeS-69" value="Salts, Hashes. Passwords" style="text;html=1;strokeColor=none;fillColor=none;align=center;verticalAlign=middle;whiteSpace=wrap;rounded=0;" parent="XKSnobTcjBm1ILdcvmeS-50" vertex="1">
          <mxGeometry x="340" y="60" width="60" height="30" as="geometry" />
        </mxCell>
        <mxCell id="XKSnobTcjBm1ILdcvmeS-70" value="Successful Passwords" style="text;html=1;strokeColor=none;fillColor=none;align=center;verticalAlign=middle;whiteSpace=wrap;rounded=0;" parent="XKSnobTcjBm1ILdcvmeS-50" vertex="1">
          <mxGeometry x="340" y="130" width="60" height="30" as="geometry" />
        </mxCell>
        <mxCell id="XKSnobTcjBm1ILdcvmeS-71" value="" style="endArrow=classic;html=1;rounded=0;exitX=1;exitY=0.25;exitDx=0;exitDy=0;entryX=0;entryY=0.25;entryDx=0;entryDy=0;" parent="XKSnobTcjBm1ILdcvmeS-50" edge="1">
          <mxGeometry width="50" height="50" relative="1" as="geometry">
            <mxPoint x="130" y="80" as="sourcePoint" />
            <mxPoint x="210" y="80" as="targetPoint" />
          </mxGeometry>
        </mxCell>
        <mxCell id="XKSnobTcjBm1ILdcvmeS-72" value="" style="endArrow=classic;html=1;rounded=0;exitX=0;exitY=0.5;exitDx=0;exitDy=0;entryX=1;entryY=0.5;entryDx=0;entryDy=0;" parent="XKSnobTcjBm1ILdcvmeS-50" edge="1">
          <mxGeometry width="50" height="50" relative="1" as="geometry">
            <mxPoint x="210" y="210" as="sourcePoint" />
            <mxPoint x="130" y="210" as="targetPoint" />
          </mxGeometry>
        </mxCell>
        <mxCell id="XKSnobTcjBm1ILdcvmeS-73" value="&lt;div&gt;(1) Salts, &lt;br&gt;&lt;/div&gt;&lt;div&gt;Hashes.&lt;br&gt;&lt;/div&gt;" style="text;html=1;strokeColor=none;fillColor=none;align=center;verticalAlign=middle;whiteSpace=wrap;rounded=0;" parent="XKSnobTcjBm1ILdcvmeS-50" vertex="1">
          <mxGeometry x="140" y="40" width="60" height="30" as="geometry" />
        </mxCell>
        <mxCell id="XKSnobTcjBm1ILdcvmeS-74" value="Successful Passwords" style="text;html=1;strokeColor=none;fillColor=none;align=center;verticalAlign=middle;whiteSpace=wrap;rounded=0;" parent="XKSnobTcjBm1ILdcvmeS-50" vertex="1">
          <mxGeometry x="140" y="170" width="60" height="30" as="geometry" />
        </mxCell>
        <mxCell id="XKSnobTcjBm1ILdcvmeS-75" value="" style="endArrow=classic;html=1;rounded=0;exitX=1;exitY=0.25;exitDx=0;exitDy=0;entryX=0;entryY=0.25;entryDx=0;entryDy=0;" parent="XKSnobTcjBm1ILdcvmeS-50" edge="1">
          <mxGeometry width="50" height="50" relative="1" as="geometry">
            <mxPoint x="130" y="130" as="sourcePoint" />
            <mxPoint x="210" y="130" as="targetPoint" />
          </mxGeometry>
        </mxCell>
        <mxCell id="XKSnobTcjBm1ILdcvmeS-76" value="(2) Passwords " style="text;html=1;strokeColor=none;fillColor=none;align=center;verticalAlign=middle;whiteSpace=wrap;rounded=0;" parent="XKSnobTcjBm1ILdcvmeS-50" vertex="1">
          <mxGeometry x="140" y="90" width="60" height="30" as="geometry" />
        </mxCell>
        <mxCell id="XKSnobTcjBm1ILdcvmeS-77" value="Node m" style="swimlane;startSize=20;horizontal=1;containerType=tree;" parent="1" vertex="1">
          <mxGeometry x="290" y="720" width="540" height="320" as="geometry" />
        </mxCell>
        <mxCell id="XKSnobTcjBm1ILdcvmeS-78" value="&lt;font style=&quot;font-size: 15px;&quot;&gt;DDR Memory&lt;/font&gt;" style="whiteSpace=wrap;html=1;treeFolding=1;treeMoving=1;newEdgeStyle={&quot;edgeStyle&quot;:&quot;elbowEdgeStyle&quot;,&quot;startArrow&quot;:&quot;none&quot;,&quot;endArrow&quot;:&quot;none&quot;};" parent="XKSnobTcjBm1ILdcvmeS-77" vertex="1">
          <mxGeometry x="210" y="30" width="120" height="280" as="geometry" />
        </mxCell>
        <mxCell id="XKSnobTcjBm1ILdcvmeS-79" value="&lt;font style=&quot;font-size: 15px;&quot;&gt;Communication Controller&lt;/font&gt;" style="whiteSpace=wrap;html=1;treeFolding=1;treeMoving=1;newEdgeStyle={&quot;edgeStyle&quot;:&quot;elbowEdgeStyle&quot;,&quot;startArrow&quot;:&quot;none&quot;,&quot;endArrow&quot;:&quot;none&quot;};" parent="XKSnobTcjBm1ILdcvmeS-77" vertex="1">
          <mxGeometry x="10" y="30" width="120" height="280" as="geometry" />
        </mxCell>
        <mxCell id="XKSnobTcjBm1ILdcvmeS-80" value="FPGA" style="swimlane;whiteSpace=wrap;html=1;" parent="XKSnobTcjBm1ILdcvmeS-77" vertex="1">
          <mxGeometry x="410" y="30" width="120" height="280" as="geometry" />
        </mxCell>
        <mxCell id="XKSnobTcjBm1ILdcvmeS-81" value="Core Controller" style="swimlane;whiteSpace=wrap;html=1;" parent="XKSnobTcjBm1ILdcvmeS-80" vertex="1">
          <mxGeometry x="10" y="30" width="100" height="240" as="geometry" />
        </mxCell>
        <mxCell id="XKSnobTcjBm1ILdcvmeS-82" value="Hash Core 1" style="rounded=0;whiteSpace=wrap;html=1;" parent="XKSnobTcjBm1ILdcvmeS-81" vertex="1">
          <mxGeometry x="10" y="40" width="40" height="30" as="geometry" />
        </mxCell>
        <mxCell id="XKSnobTcjBm1ILdcvmeS-83" value="Hash Core 2" style="rounded=0;whiteSpace=wrap;html=1;" parent="XKSnobTcjBm1ILdcvmeS-81" vertex="1">
          <mxGeometry x="50" y="40" width="40" height="30" as="geometry" />
        </mxCell>
        <mxCell id="XKSnobTcjBm1ILdcvmeS-84" value="Hash Core .." style="rounded=0;whiteSpace=wrap;html=1;" parent="XKSnobTcjBm1ILdcvmeS-81" vertex="1">
          <mxGeometry x="10" y="70" width="40" height="30" as="geometry" />
        </mxCell>
        <mxCell id="XKSnobTcjBm1ILdcvmeS-85" value="Hash Core .." style="rounded=0;whiteSpace=wrap;html=1;" parent="XKSnobTcjBm1ILdcvmeS-81" vertex="1">
          <mxGeometry x="50" y="70" width="40" height="30" as="geometry" />
        </mxCell>
        <mxCell id="XKSnobTcjBm1ILdcvmeS-86" value="Hash Core .." style="rounded=0;whiteSpace=wrap;html=1;" parent="XKSnobTcjBm1ILdcvmeS-81" vertex="1">
          <mxGeometry x="10" y="100" width="40" height="30" as="geometry" />
        </mxCell>
        <mxCell id="XKSnobTcjBm1ILdcvmeS-87" value="Hash Core .." style="rounded=0;whiteSpace=wrap;html=1;" parent="XKSnobTcjBm1ILdcvmeS-81" vertex="1">
          <mxGeometry x="50" y="100" width="40" height="30" as="geometry" />
        </mxCell>
        <mxCell id="XKSnobTcjBm1ILdcvmeS-88" value="Hash Core .." style="rounded=0;whiteSpace=wrap;html=1;" parent="XKSnobTcjBm1ILdcvmeS-81" vertex="1">
          <mxGeometry x="10" y="130" width="40" height="30" as="geometry" />
        </mxCell>
        <mxCell id="XKSnobTcjBm1ILdcvmeS-89" value="Hash Core .." style="rounded=0;whiteSpace=wrap;html=1;" parent="XKSnobTcjBm1ILdcvmeS-81" vertex="1">
          <mxGeometry x="50" y="130" width="40" height="30" as="geometry" />
        </mxCell>
        <mxCell id="XKSnobTcjBm1ILdcvmeS-90" value="Hash Core .." style="rounded=0;whiteSpace=wrap;html=1;" parent="XKSnobTcjBm1ILdcvmeS-81" vertex="1">
          <mxGeometry x="10" y="160" width="40" height="30" as="geometry" />
        </mxCell>
        <mxCell id="XKSnobTcjBm1ILdcvmeS-91" value="Hash Core .." style="rounded=0;whiteSpace=wrap;html=1;" parent="XKSnobTcjBm1ILdcvmeS-81" vertex="1">
          <mxGeometry x="50" y="160" width="40" height="30" as="geometry" />
        </mxCell>
        <mxCell id="XKSnobTcjBm1ILdcvmeS-92" value="Hash Core .." style="rounded=0;whiteSpace=wrap;html=1;" parent="XKSnobTcjBm1ILdcvmeS-81" vertex="1">
          <mxGeometry x="10" y="190" width="40" height="30" as="geometry" />
        </mxCell>
        <mxCell id="XKSnobTcjBm1ILdcvmeS-93" value="Hash Core n" style="rounded=0;whiteSpace=wrap;html=1;" parent="XKSnobTcjBm1ILdcvmeS-81" vertex="1">
          <mxGeometry x="50" y="190" width="40" height="30" as="geometry" />
        </mxCell>
        <mxCell id="XKSnobTcjBm1ILdcvmeS-94" value="" style="endArrow=classic;html=1;rounded=0;exitX=1;exitY=0.25;exitDx=0;exitDy=0;" parent="XKSnobTcjBm1ILdcvmeS-77" source="XKSnobTcjBm1ILdcvmeS-78" edge="1">
          <mxGeometry width="50" height="50" relative="1" as="geometry">
            <mxPoint x="360" y="130" as="sourcePoint" />
            <mxPoint x="420" y="100" as="targetPoint" />
          </mxGeometry>
        </mxCell>
        <mxCell id="XKSnobTcjBm1ILdcvmeS-95" value="" style="endArrow=classic;html=1;rounded=0;entryX=1;entryY=0.321;entryDx=0;entryDy=0;exitX=0;exitY=0.25;exitDx=0;exitDy=0;entryPerimeter=0;" parent="XKSnobTcjBm1ILdcvmeS-77" edge="1">
          <mxGeometry width="50" height="50" relative="1" as="geometry">
            <mxPoint x="420" y="169.7" as="sourcePoint" />
            <mxPoint x="330" y="169.57999999999998" as="targetPoint" />
          </mxGeometry>
        </mxCell>
        <mxCell id="XKSnobTcjBm1ILdcvmeS-96" value="Salts, Hashes. Passwords" style="text;html=1;strokeColor=none;fillColor=none;align=center;verticalAlign=middle;whiteSpace=wrap;rounded=0;" parent="XKSnobTcjBm1ILdcvmeS-77" vertex="1">
          <mxGeometry x="340" y="60" width="60" height="30" as="geometry" />
        </mxCell>
        <mxCell id="XKSnobTcjBm1ILdcvmeS-97" value="Successful Passwords" style="text;html=1;strokeColor=none;fillColor=none;align=center;verticalAlign=middle;whiteSpace=wrap;rounded=0;" parent="XKSnobTcjBm1ILdcvmeS-77" vertex="1">
          <mxGeometry x="340" y="130" width="60" height="30" as="geometry" />
        </mxCell>
        <mxCell id="XKSnobTcjBm1ILdcvmeS-98" value="" style="endArrow=classic;html=1;rounded=0;exitX=1;exitY=0.25;exitDx=0;exitDy=0;entryX=0;entryY=0.25;entryDx=0;entryDy=0;" parent="XKSnobTcjBm1ILdcvmeS-77" edge="1">
          <mxGeometry width="50" height="50" relative="1" as="geometry">
            <mxPoint x="130" y="80" as="sourcePoint" />
            <mxPoint x="210" y="80" as="targetPoint" />
          </mxGeometry>
        </mxCell>
        <mxCell id="XKSnobTcjBm1ILdcvmeS-99" value="" style="endArrow=classic;html=1;rounded=0;exitX=0;exitY=0.5;exitDx=0;exitDy=0;entryX=1;entryY=0.5;entryDx=0;entryDy=0;" parent="XKSnobTcjBm1ILdcvmeS-77" edge="1">
          <mxGeometry width="50" height="50" relative="1" as="geometry">
            <mxPoint x="210" y="210" as="sourcePoint" />
            <mxPoint x="130" y="210" as="targetPoint" />
          </mxGeometry>
        </mxCell>
        <mxCell id="XKSnobTcjBm1ILdcvmeS-100" value="&lt;div&gt;(1) Salts, &lt;br&gt;&lt;/div&gt;&lt;div&gt;Hashes.&lt;br&gt;&lt;/div&gt;" style="text;html=1;strokeColor=none;fillColor=none;align=center;verticalAlign=middle;whiteSpace=wrap;rounded=0;" parent="XKSnobTcjBm1ILdcvmeS-77" vertex="1">
          <mxGeometry x="140" y="40" width="60" height="30" as="geometry" />
        </mxCell>
        <mxCell id="XKSnobTcjBm1ILdcvmeS-101" value="Successful Passwords" style="text;html=1;strokeColor=none;fillColor=none;align=center;verticalAlign=middle;whiteSpace=wrap;rounded=0;" parent="XKSnobTcjBm1ILdcvmeS-77" vertex="1">
          <mxGeometry x="140" y="170" width="60" height="30" as="geometry" />
        </mxCell>
        <mxCell id="XKSnobTcjBm1ILdcvmeS-102" value="" style="endArrow=classic;html=1;rounded=0;exitX=1;exitY=0.25;exitDx=0;exitDy=0;entryX=0;entryY=0.25;entryDx=0;entryDy=0;" parent="XKSnobTcjBm1ILdcvmeS-77" edge="1">
          <mxGeometry width="50" height="50" relative="1" as="geometry">
            <mxPoint x="130" y="130" as="sourcePoint" />
            <mxPoint x="210" y="130" as="targetPoint" />
          </mxGeometry>
        </mxCell>
        <mxCell id="XKSnobTcjBm1ILdcvmeS-103" value="(2) Passwords " style="text;html=1;strokeColor=none;fillColor=none;align=center;verticalAlign=middle;whiteSpace=wrap;rounded=0;" parent="XKSnobTcjBm1ILdcvmeS-77" vertex="1">
          <mxGeometry x="140" y="90" width="60" height="30" as="geometry" />
        </mxCell>
        <mxCell id="XKSnobTcjBm1ILdcvmeS-119" style="edgeStyle=orthogonalEdgeStyle;rounded=0;orthogonalLoop=1;jettySize=auto;html=1;exitX=0.75;exitY=0;exitDx=0;exitDy=0;entryX=0.75;entryY=1;entryDx=0;entryDy=0;" parent="1" source="XKSnobTcjBm1ILdcvmeS-105" target="XKSnobTcjBm1ILdcvmeS-117" edge="1">
          <mxGeometry relative="1" as="geometry" />
        </mxCell>
        <mxCell id="XKSnobTcjBm1ILdcvmeS-105" value="&lt;font style=&quot;font-size: 20px;&quot;&gt;Orchestrator&lt;/font&gt;" style="rounded=0;whiteSpace=wrap;html=1;" parent="1" vertex="1">
          <mxGeometry x="30" y="520" width="120" height="60" as="geometry" />
        </mxCell>
        <mxCell id="XKSnobTcjBm1ILdcvmeS-107" value="" style="endArrow=none;html=1;rounded=0;" parent="1" edge="1">
          <mxGeometry relative="1" as="geometry">
            <mxPoint x="200" y="20" as="sourcePoint" />
            <mxPoint x="200" y="1040" as="targetPoint" />
          </mxGeometry>
        </mxCell>
        <mxCell id="XKSnobTcjBm1ILdcvmeS-108" value="&lt;font style=&quot;font-size: 18px;&quot;&gt;Orchestrator-node Bus&lt;/font&gt;" style="text;html=1;strokeColor=none;fillColor=none;align=center;verticalAlign=middle;whiteSpace=wrap;rounded=0;" parent="1" vertex="1">
          <mxGeometry x="80" y="20" width="110" height="60" as="geometry" />
        </mxCell>
        <mxCell id="XKSnobTcjBm1ILdcvmeS-109" value="" style="endArrow=classic;html=1;rounded=0;exitX=1;exitY=0.25;exitDx=0;exitDy=0;" parent="1" source="XKSnobTcjBm1ILdcvmeS-105" edge="1">
          <mxGeometry width="50" height="50" relative="1" as="geometry">
            <mxPoint x="160" y="550" as="sourcePoint" />
            <mxPoint x="200" y="535" as="targetPoint" />
          </mxGeometry>
        </mxCell>
        <mxCell id="XKSnobTcjBm1ILdcvmeS-110" value="" style="endArrow=classic;html=1;rounded=0;entryX=1;entryY=0.75;entryDx=0;entryDy=0;" parent="1" target="XKSnobTcjBm1ILdcvmeS-105" edge="1">
          <mxGeometry width="50" height="50" relative="1" as="geometry">
            <mxPoint x="200" y="565" as="sourcePoint" />
            <mxPoint x="160" y="590" as="targetPoint" />
          </mxGeometry>
        </mxCell>
        <mxCell id="XKSnobTcjBm1ILdcvmeS-111" value="" style="endArrow=classic;html=1;rounded=0;entryX=0;entryY=0.25;entryDx=0;entryDy=0;" parent="1" target="XKSnobTcjBm1ILdcvmeS-52" edge="1">
          <mxGeometry width="50" height="50" relative="1" as="geometry">
            <mxPoint x="200" y="470" as="sourcePoint" />
            <mxPoint x="270" y="420" as="targetPoint" />
          </mxGeometry>
        </mxCell>
        <mxCell id="XKSnobTcjBm1ILdcvmeS-112" value="" style="endArrow=classic;html=1;rounded=0;exitX=0;exitY=0.214;exitDx=0;exitDy=0;exitPerimeter=0;" parent="1" source="XKSnobTcjBm1ILdcvmeS-52" edge="1">
          <mxGeometry width="50" height="50" relative="1" as="geometry">
            <mxPoint x="240" y="460" as="sourcePoint" />
            <mxPoint x="200" y="460" as="targetPoint" />
          </mxGeometry>
        </mxCell>
        <mxCell id="XKSnobTcjBm1ILdcvmeS-113" value="" style="endArrow=classic;html=1;rounded=0;entryX=0;entryY=0.25;entryDx=0;entryDy=0;" parent="1" target="XKSnobTcjBm1ILdcvmeS-79" edge="1">
          <mxGeometry width="50" height="50" relative="1" as="geometry">
            <mxPoint x="200" y="820" as="sourcePoint" />
            <mxPoint x="300" y="780" as="targetPoint" />
          </mxGeometry>
        </mxCell>
        <mxCell id="XKSnobTcjBm1ILdcvmeS-114" value="" style="endArrow=classic;html=1;rounded=0;exitX=0;exitY=0.214;exitDx=0;exitDy=0;exitPerimeter=0;" parent="1" source="XKSnobTcjBm1ILdcvmeS-79" edge="1">
          <mxGeometry width="50" height="50" relative="1" as="geometry">
            <mxPoint x="230" y="830" as="sourcePoint" />
            <mxPoint x="200" y="810" as="targetPoint" />
          </mxGeometry>
        </mxCell>
        <mxCell id="XKSnobTcjBm1ILdcvmeS-115" value="" style="endArrow=classic;html=1;rounded=0;entryX=0;entryY=0.25;entryDx=0;entryDy=0;" parent="1" target="XKSnobTcjBm1ILdcvmeS-4" edge="1">
          <mxGeometry width="50" height="50" relative="1" as="geometry">
            <mxPoint x="200" y="120" as="sourcePoint" />
            <mxPoint x="270" y="110" as="targetPoint" />
          </mxGeometry>
        </mxCell>
        <mxCell id="XKSnobTcjBm1ILdcvmeS-116" value="" style="endArrow=classic;html=1;rounded=0;exitX=0;exitY=0.214;exitDx=0;exitDy=0;exitPerimeter=0;" parent="1" source="XKSnobTcjBm1ILdcvmeS-4" edge="1">
          <mxGeometry width="50" height="50" relative="1" as="geometry">
            <mxPoint x="250" y="140" as="sourcePoint" />
            <mxPoint x="200" y="110" as="targetPoint" />
          </mxGeometry>
        </mxCell>
        <mxCell id="XKSnobTcjBm1ILdcvmeS-118" style="edgeStyle=orthogonalEdgeStyle;rounded=0;orthogonalLoop=1;jettySize=auto;html=1;exitX=0.25;exitY=1;exitDx=0;exitDy=0;entryX=0.25;entryY=0;entryDx=0;entryDy=0;" parent="1" source="XKSnobTcjBm1ILdcvmeS-117" target="XKSnobTcjBm1ILdcvmeS-105" edge="1">
          <mxGeometry relative="1" as="geometry" />
        </mxCell>
        <mxCell id="XKSnobTcjBm1ILdcvmeS-117" value="&lt;font style=&quot;font-size: 20px;&quot;&gt;User Input&lt;br&gt;&lt;/font&gt;" style="rounded=0;whiteSpace=wrap;html=1;" parent="1" vertex="1">
          <mxGeometry x="30" y="415" width="120" height="60" as="geometry" />
        </mxCell>
        <mxCell id="XKSnobTcjBm1ILdcvmeS-120" value="" style="endArrow=none;html=1;rounded=0;" parent="1" edge="1">
          <mxGeometry relative="1" as="geometry">
            <mxPoint x="180" y="290" as="sourcePoint" />
            <mxPoint x="220" y="250" as="targetPoint" />
          </mxGeometry>
        </mxCell>
      </root>
    </mxGraphModel>
  </diagram>
</mxfile>
